<?xml version="1.0" standalone="no"?>
<!DOCTYPE svg PUBLIC "-//W3C//DTD SVG 20010904//EN"
 "http://www.w3.org/TR/2001/REC-SVG-20010904/DTD/svg10.dtd">
<svg version="1.0" xmlns="http://www.w3.org/2000/svg"
 width="128.000000pt" height="117.000000pt" viewBox="0 0 128.000000 117.000000"
 preserveAspectRatio="xMidYMid meet">

<g transform="translate(0.000000,117.000000) scale(0.100000,-0.100000)"
fill="#000000" stroke="none">
<path d="M0 585 l0 -585 640 0 640 0 0 585 0 585 -640 0 -640 0 0 -585z m509
238 c64 -167 118 -303 121 -303 3 0 57 136 121 303 l117 302 130 3 130 3 7
-53 c3 -29 23 -255 45 -503 22 -247 42 -467 45 -487 l5 -38 -125 0 c-69 0
-125 3 -125 8 0 23 -51 626 -53 628 -1 2 -52 -139 -112 -312 l-110 -314 -75 0
-75 0 -110 314 c-60 173 -111 314 -112 312 -2 -2 -53 -608 -53 -631 0 -3 -56
-5 -124 -5 l-124 0 4 38 c3 20 22 240 44 487 22 248 42 474 45 503 l7 53 130
-3 130 -3 117 -302z"/>
</g>
</svg>
