<?xml version="1.0" standalone="no"?>
<!DOCTYPE svg PUBLIC "-//W3C//DTD SVG 20010904//EN"
 "http://www.w3.org/TR/2001/REC-SVG-20010904/DTD/svg10.dtd">
<svg version="1.0" xmlns="http://www.w3.org/2000/svg"
 width="186.000000pt" height="112.000000pt" viewBox="0 0 186.000000 112.000000"
 preserveAspectRatio="xMidYMid meet">

<g transform="translate(0.000000,112.000000) scale(0.100000,-0.100000)"
fill="#000000" stroke="none">
<path d="M780 808 c-84 -145 -155 -267 -158 -273 -9 -18 14 8 158 180 79 94
146 174 150 178 6 7 170 -338 170 -359 0 -5 -93 -26 -207 -46 l-208 -36 308
-1 c170 -1 306 2 304 7 -3 4 -82 140 -177 302 -94 162 -175 299 -179 303 -5 5
-77 -110 -161 -255z"/>
<path d="M830 680 c0 -5 5 -10 11 -10 5 0 7 5 4 10 -3 6 -8 10 -11 10 -2 0 -4
-4 -4 -10z"/>
<path d="M958 683 c-2 -5 -1 -35 3 -68 l6 -60 1 68 c2 61 -1 80 -10 60z"/>
<path d="M919 633 c-13 -16 -12 -17 4 -4 9 7 17 15 17 17 0 8 -8 3 -21 -13z"/>
<path d="M1138 313 c7 -3 12 -25 12 -59 0 -51 -1 -54 -19 -44 -11 5 -24 10
-30 10 -18 0 -51 -39 -50 -57 0 -12 4 -9 10 9 11 30 33 41 60 33 25 -8 35 -51
18 -72 -10 -12 -10 -15 -1 -9 6 4 12 2 12 -3 0 -6 8 -11 18 -10 10 0 12 3 5 6
-9 3 -13 34 -13 104 0 88 -2 99 -17 98 -11 0 -13 -3 -5 -6z"/>
<path d="M20 211 c0 -62 -4 -91 -13 -94 -6 -3 1 -5 18 -5 17 0 24 2 18 5 -9 3
-13 30 -13 86 l1 82 27 -34 c15 -19 36 -46 47 -59 l20 -23 53 65 c29 36 49 66
45 66 -4 0 -28 -27 -52 -60 -25 -32 -47 -57 -50 -55 -4 2 -24 28 -46 59 -22
31 -43 56 -47 56 -5 0 -8 -40 -8 -89z"/>
<path d="M290 200 c-11 -11 -20 -28 -19 -37 0 -12 4 -8 10 9 6 15 18 30 28 33
42 13 71 -25 51 -67 -11 -22 -10 -22 4 -4 9 11 16 26 16 33 0 18 -37 53 -55
53 -8 0 -24 -9 -35 -20z"/>
<path d="M424 204 c-18 -14 -18 -15 4 -4 28 14 59 5 67 -19 8 -27 -4 -50 -31
-57 -29 -7 -54 10 -55 40 -1 18 -2 18 -6 3 -6 -23 24 -57 49 -57 22 0 58 34
58 55 0 18 -35 55 -53 55 -7 0 -22 -7 -33 -16z"/>
<path d="M674 204 c-18 -14 -18 -14 6 -3 31 14 36 19 24 19 -6 0 -19 -7 -30
-16z"/>
<path d="M1220 200 c-24 -24 -25 -40 -5 -66 10 -12 13 -14 10 -3 -4 10 3 20
17 27 22 11 22 11 -4 6 -40 -9 -35 20 7 44 11 6 14 12 8 12 -7 0 -22 -9 -33
-20z"/>
<path d="M1690 211 c-8 -6 -18 -7 -22 -5 -4 3 -8 -15 -8 -40 0 -26 -5 -46 -12
-49 -7 -3 1 -5 17 -5 17 0 24 2 18 5 -21 8 -16 71 6 83 32 17 51 2 51 -40 0
-21 -6 -41 -12 -43 -7 -3 1 -5 17 -5 17 0 24 2 18 5 -7 2 -13 22 -13 43 0 29
-5 42 -19 50 -23 12 -22 12 -41 1z"/>
<path d="M1813 213 c-22 -8 -14 -39 13 -52 30 -13 27 -33 -7 -42 -22 -6 -22
-7 -3 -8 12 -1 28 6 35 15 12 14 9 20 -16 39 -24 20 -27 26 -16 39 14 17 14
17 -6 9z"/>
<path d="M568 165 c-21 -23 -38 -45 -38 -49 0 -3 23 -6 50 -6 41 0 50 3 49 18
0 10 -3 12 -6 5 -5 -13 -73 -18 -73 -6 0 4 17 24 37 45 20 21 33 38 28 37 -6
0 -27 -20 -47 -44z"/>
<path d="M735 194 c18 -18 19 -29 4 -56 -8 -15 -8 -19 0 -14 6 4 11 2 11 -3 0
-6 8 -11 18 -10 10 0 12 3 5 6 -8 3 -13 22 -13 47 0 35 -3 42 -20 43 -18 2
-19 0 -5 -13z"/>
<path d="M845 160 c28 -55 30 -57 39 -34 3 9 2 12 -5 9 -5 -4 -17 12 -27 34
-9 22 -20 41 -25 41 -4 0 4 -22 18 -50z"/>
<path d="M910 199 c0 -5 5 -7 10 -4 6 3 10 8 10 11 0 2 -4 4 -10 4 -5 0 -10
-5 -10 -11z"/>
<path d="M1278 198 c10 -13 10 -17 0 -21 -9 -4 -9 -6 -1 -6 20 -2 24 16 5 30
-15 13 -16 12 -4 -3z"/>
<path d="M1335 200 c-8 -12 12 -40 28 -40 6 0 3 6 -8 13 -10 8 -15 19 -11 25
4 7 5 12 2 12 -3 0 -8 -5 -11 -10z"/>
<path d="M1502 198 c-35 -35 8 -99 55 -82 14 5 29 16 31 24 4 12 1 11 -15 -2
-34 -31 -73 -16 -73 27 0 12 5 26 12 33 7 7 10 12 7 12 -3 0 -10 -5 -17 -12z"/>
<path d="M1573 190 c6 -8 12 -16 13 -18 1 -1 4 5 6 15 4 13 0 19 -13 19 -14 0
-16 -3 -6 -16z"/>
<path d="M651 164 c-1 -27 32 -57 56 -51 15 4 15 5 -3 6 -24 1 -39 16 -47 46
-4 19 -5 19 -6 -1z"/>
<path d="M1381 143 c-1 -24 -34 -33 -44 -13 -3 6 -4 5 -3 -2 4 -19 45 -22 52
-4 3 8 4 21 1 28 -3 7 -6 3 -6 -9z"/>
<path d="M209 119 c-10 -6 -7 -9 14 -9 29 0 35 5 14 13 -8 3 -20 1 -28 -4z"/>
<path d="M1425 120 c-3 -5 3 -10 15 -10 12 0 18 5 15 10 -3 6 -10 10 -15 10
-5 0 -12 -4 -15 -10z"/>
<path d="M318 113 c7 -3 16 -2 19 1 4 3 -2 6 -13 5 -11 0 -14 -3 -6 -6z"/>
<path d="M1098 113 c7 -3 16 -2 19 1 4 3 -2 6 -13 5 -11 0 -14 -3 -6 -6z"/>
<path d="M1248 113 c7 -3 16 -2 19 1 4 3 -2 6 -13 5 -11 0 -14 -3 -6 -6z"/>
<path d="M1571 67 c-13 -21 -12 -21 5 -5 10 10 16 20 13 22 -3 3 -11 -5 -18
-17z"/>
<path d="M830 50 c-12 -8 -10 -10 8 -10 13 0 20 4 17 10 -7 12 -6 12 -25 0z"/>
<path d="M1520 50 c8 -5 20 -10 25 -10 6 0 3 5 -5 10 -8 5 -19 10 -25 10 -5 0
-3 -5 5 -10z"/>
</g>
</svg>
